<svg width="256" height="50" viewBox="0 0 256 50" fill="none" xmlns="http://www.w3.org/2000/svg">
<path d="M0 1.43841H6.97361L19.0983 30.9668H19.5446L31.6695 1.43841H38.6431V39.3691H33.1758V11.9212H32.8225L21.5903 39.3135H17.0528L5.82064 11.9027H5.46731V39.3691H0V1.43841Z" fill="#BCBCBC"/>
<path d="M54.7288 39.3691C52.9187 39.3691 51.4558 39.3691 49.9543 38.9987C48.4914 38.3196 47.3322 37.338 46.4768 36.0539C45.6338 34.7697 45.2123 33.1955 45.2123 31.331C45.2123 29.7259 45.5222 28.4048 46.1421 27.3676C46.762 26.3304 47.5988 25.5093 48.6526 24.9043C49.7064 24.2993 50.8841 23.8425 52.1859 23.5338C53.4876 23.2251 54.8142 22.9905 56.1655 22.83C57.8763 22.6324 59.2649 22.4719 60.3311 22.3484C61.3972 22.2126 62.1721 21.9965 62.6556 21.7002C63.1391 21.4039 63.3808 20.9223 63.3808 20.2556V20.1259C63.3808 18.5084 62.9221 17.2552 62.0047 16.3662C61.0997 15.4772 59.7484 15.0327 57.9507 15.0327C56.0787 15.0327 54.6034 15.4463 53.5248 16.2736C52.4586 17.0885 51.721 17.996 51.3118 18.9962L46.0863 17.8108C46.7062 16.0822 47.6112 14.687 48.8013 13.6251C50.0039 12.5509 51.3862 11.773 52.9483 11.2915C54.5104 10.7976 56.1531 10.5507 57.8763 10.5507C59.0169 10.5507 60.2257 10.6865 61.5026 10.9581C62.792 11.2174 63.9945 11.699 65.1103 12.4027C66.2385 13.1065 67.1621 14.1128 67.8812 15.4216C68.6002 16.7181 68.9597 18.4035 68.9597 20.4778V39.3691H63.5296L63.1343 39.3691H62.9111C62.0929 39.3691 62.0929 39.3691 61.2747 39.3691C60.4564 39.3691 60.0149 39.3135 58.9177 39.3135C57.1835 39.3691 56.3033 39.3691 54.7288 39.3691ZM56.0725 35.5538C57.6098 35.5538 58.9239 35.2513 60.0149 34.6463C61.1183 34.0413 61.9551 33.251 62.5254 32.2756C63.1081 31.2878 63.3994 30.2321 63.3994 29.1085V25.4414C63.2011 25.639 62.8168 25.8242 62.2465 25.997C61.6886 26.1576 61.0501 26.2995 60.3311 26.423C59.612 26.5341 58.9115 26.6391 58.2297 26.7379C57.5478 26.8243 56.9775 26.8984 56.5188 26.9601C55.4402 27.0959 54.4546 27.3244 53.562 27.6454C52.6818 27.9664 51.9751 28.4294 51.442 29.0345C50.9213 29.6271 50.661 30.4174 50.661 31.4051C50.661 32.7757 51.1693 33.8128 52.1859 34.5166C53.2025 35.2081 54.498 35.5538 56.0725 35.5538Z" fill="#BCBCBC"/>
<path d="M76.3657 39.3691V10.9211H81.926V39.3691H76.3657ZM79.0341 6.61194C78.0671 6.61194 77.2365 6.29091 76.5422 5.64886C75.8604 4.99445 75.5194 4.21658 75.5194 3.31523C75.5194 2.40154 75.8604 1.62366 76.5422 0.981603C77.2365 0.327201 78.0671 0 79.0341 0C80.0011 0 80.8256 0.327201 81.5074 0.981603C82.2017 1.62366 82.5488 2.40154 82.5488 3.31523C82.5488 4.21658 82.2017 4.99445 81.5074 5.64886C80.8256 6.29091 80.0011 6.61194 79.0341 6.61194Z" fill="#BCBCBC"/>
<path d="M94.9667 22.4781V39.3691H89.4064V10.9211H94.7435L97.4706 10.847H97.8239C99.7318 10.847 99.7318 10.847 101.368 10.847C103.823 10.847 101.678 10.847 103.823 10.847C105.769 10.847 107.172 10.9581 108.635 11.773C110.098 12.5756 111.232 13.7733 112.038 15.3661C112.844 16.9589 113.247 18.9283 113.247 21.2742V39.3691H107.687V21.941C107.687 19.879 107.147 18.2677 106.069 17.107C104.99 15.9341 103.509 15.3476 101.624 15.3476C100.335 15.3476 99.188 15.6254 98.1838 16.181C97.192 16.7366 96.4048 17.5515 95.8221 18.6257C95.2518 19.6876 94.9667 20.9717 94.9667 22.4781Z" fill="#BCBCBC"/>
<path d="M136.979 49.4073V10.2913H142.409H142.966H143.431C144.424 10.2913 145.515 10.2173 146.333 10.2173C147.969 10.2173 148.136 10.2173 149.34 10.2173C150.591 10.2173 149.469 10.2173 151.242 10.2173C153.548 10.2173 155.439 10.5012 157.249 11.6619C159.059 12.8225 160.478 14.4955 161.507 16.681C162.549 18.8665 163.07 21.4964 163.07 24.5709C163.07 27.6453 162.555 30.2815 161.526 32.4793C160.497 34.6647 159.084 36.3501 157.286 37.5355C155.488 38.7085 153.437 39.295 151.131 39.295C149.395 39.295 147.976 39.0048 146.872 38.4245C145.781 37.8442 144.926 37.1651 144.306 36.3872C143.686 35.6093 143.209 34.9179 142.874 34.3128H142.539V49.4073H136.979ZM142.428 24.5153C142.428 26.5156 142.719 28.2689 143.302 29.7752C143.884 31.2816 144.727 32.4608 145.831 33.3127C146.934 34.1523 148.286 34.5721 149.885 34.5721C151.546 34.5721 152.935 34.1338 154.05 33.2572C155.166 32.3682 156.009 31.1643 156.579 29.6456C157.162 28.1269 157.453 26.4168 157.453 24.5153C157.453 22.6385 157.168 20.9531 156.598 19.4591C156.04 17.9651 155.197 16.786 154.069 15.9216C152.953 15.0573 151.558 14.6252 149.885 14.6252C148.273 14.6252 146.909 15.0388 145.794 15.8661C144.69 16.6934 143.853 17.8478 143.283 19.3295C142.713 20.8112 142.428 22.5398 142.428 24.5153Z" fill="#BCBCBC"/>
<path d="M177.426 38.7393C175.616 38.7393 174.153 38.7393 172.702 38.3689C171.24 37.6898 170.08 36.7082 169.225 35.4241C168.382 34.14 167.96 32.5657 167.96 30.7013C167.96 29.0961 168.27 27.775 168.89 26.7378C169.51 25.7007 170.347 24.8796 171.401 24.2745C172.454 23.6695 173.632 23.2127 174.934 22.904C176.236 22.5953 177.562 22.3607 178.914 22.2002C180.624 22.0027 182.013 21.8421 183.079 21.7187C184.145 21.5829 184.92 21.3668 185.404 21.0704C185.887 20.7741 186.129 20.2926 186.129 19.6258V19.4962C186.129 17.8787 185.67 16.6254 184.753 15.7364C183.848 14.8474 182.497 14.4029 180.699 14.4029C178.827 14.4029 177.352 14.8166 176.273 15.6438C175.207 16.4588 174.469 17.3663 174.06 18.3664L168.834 17.1811C169.454 15.4525 170.359 14.0572 171.549 12.9954C172.752 11.9212 174.134 11.1433 175.696 10.6617C177.259 10.1678 178.901 9.9209 180.624 9.9209C181.765 9.9209 182.974 10.0567 184.251 10.3284C185.54 10.5876 186.743 11.0692 187.858 11.773C188.987 12.4768 189.91 13.4831 190.629 14.7919C191.348 16.0883 191.708 17.7737 191.708 19.8481V38.7393H186.278H184.79H184.567C183.972 38.7393 184.79 38.7393 183.972 38.7393C183.153 38.7393 182.657 38.7393 181.517 38.7393C179.88 38.7393 179 38.7393 177.426 38.7393ZM178.821 34.924C180.358 34.924 181.672 34.6215 182.763 34.0165C183.866 33.4115 184.703 32.6213 185.274 31.6458C185.856 30.6581 186.148 29.6024 186.148 28.4788V24.8117C185.949 25.0092 185.565 25.1944 184.995 25.3673C184.437 25.5278 183.798 25.6698 183.079 25.7933C182.36 25.9044 181.66 26.0093 180.978 26.1081C180.296 26.1945 179.726 26.2686 179.267 26.3304C178.188 26.4662 177.203 26.6946 176.31 27.0156C175.43 27.3367 174.723 27.7997 174.19 28.4047C173.669 28.9974 173.409 29.7876 173.409 30.7754C173.409 32.1459 173.917 33.1831 174.934 33.8869C175.951 34.5783 177.246 34.924 178.821 34.924Z" fill="#BCBCBC"/>
<path d="M211.09 50C208.821 50 206.869 49.7037 205.232 49.111C203.608 48.5183 202.281 47.7343 201.252 46.7589C200.223 45.7834 199.455 44.7154 198.947 43.5547L203.726 41.5915C204.06 42.1348 204.507 42.709 205.065 43.314C205.635 43.9313 206.404 44.4561 207.371 44.8882C208.35 45.3204 209.608 45.5365 211.146 45.5365C213.253 45.5365 214.995 45.0241 216.371 43.9992C217.747 42.9868 218.435 41.3693 218.435 39.1468V33.5535H218.082C217.747 34.1585 217.264 34.8314 216.632 35.5723C216.012 36.3131 215.156 36.9552 214.065 37.4984C212.974 38.0417 211.555 38.3133 209.807 38.3133C207.55 38.3133 205.517 37.7886 203.707 36.7391C201.91 35.6772 200.484 34.1153 199.43 32.0533C198.389 29.979 197.868 27.4293 197.868 24.4042C197.868 21.3791 198.382 18.7862 199.411 16.6254C200.453 14.4647 201.879 12.8101 203.689 11.6619C205.499 10.5012 207.862 10.2173 210.155 10.2173C211.928 10.2173 212.61 10.2173 214.247 10.2173C215.883 10.2173 214.247 10.2173 215.065 10.2173C216.387 10.2173 215.883 10.2173 217.11 10.2913H217.519H218.528H223.977V39.369C223.977 41.8138 223.407 43.8202 222.266 45.3883C221.126 46.9564 219.582 48.117 217.636 48.8702C215.702 49.6234 213.52 50 211.09 50ZM211.034 33.7202C212.633 33.7202 213.985 33.3498 215.088 32.6089C216.204 31.8557 217.047 30.7815 217.617 29.3863C218.2 27.9787 218.491 26.2933 218.491 24.3301C218.491 22.4163 218.206 20.7309 217.636 19.2739C217.066 17.817 216.229 16.681 215.125 15.8661C214.022 15.0388 212.658 14.6252 211.034 14.6252C209.36 14.6252 207.966 15.0573 206.85 15.9216C205.734 16.7736 204.891 17.9342 204.321 19.4036C203.763 20.8729 203.484 22.5151 203.484 24.3301C203.484 26.1945 203.769 27.8305 204.339 29.2381C204.91 30.6457 205.753 31.7446 206.869 32.5348C207.997 33.3251 209.385 33.7202 211.034 33.7202Z" fill="#BCBCBC"/>
<path d="M243.745 39.3135C240.931 39.3135 238.507 38.7146 236.474 37.5169C234.453 36.3069 232.891 34.6092 231.788 32.4237C230.697 30.2259 230.151 27.6515 230.151 24.7005C230.151 21.7866 230.697 19.2184 231.788 16.9959C232.891 14.7734 234.428 13.0386 236.4 11.7915C238.383 10.5444 240.701 9.9209 243.355 9.9209C244.966 9.9209 246.528 10.1864 248.041 10.7173C249.553 11.2482 250.911 12.0817 252.113 13.2176C253.316 14.3536 254.264 15.8291 254.959 17.6441C255.653 19.4468 256 21.6384 256 24.219V26.1822H233.294V22.0335H250.551C250.551 20.5765 250.254 19.2863 249.659 18.1627C249.064 17.0267 248.227 16.1315 247.148 15.4771C246.082 14.8227 244.83 14.4955 243.392 14.4955C241.83 14.4955 240.466 14.8783 239.301 15.6438C238.148 16.397 237.255 17.3848 236.623 18.6072C236.003 19.8172 235.693 21.1322 235.693 22.5521V25.7933C235.693 27.6947 236.028 29.3122 236.697 30.6457C237.379 31.9792 238.327 32.9979 239.542 33.7017C240.757 34.3931 242.177 34.7388 243.801 34.7388C244.855 34.7388 245.815 34.5907 246.683 34.2943C247.551 33.9856 248.301 33.5288 248.933 32.9238C249.566 32.3188 250.049 31.5718 250.384 30.6828L255.647 31.6273C255.225 33.1707 254.469 34.5227 253.378 35.6834C252.299 36.8317 250.942 37.7269 249.305 38.3689C247.681 38.9986 245.828 39.3135 243.745 39.3135Z" fill="#BCBCBC"/>
</svg>
